<?xml version="1.0" encoding="UTF-8"?>
<svg id="Layer_1" data-name="Layer 1" xmlns="http://www.w3.org/2000/svg" viewBox="0 0 500 500">
  <defs>
    <style>
      .cls-1 {
        fill: #fff;
      }
    </style>
  </defs>
  <rect x="171.29" y="171.29" width="157.41" height="157.41" rx="17.45" ry="17.45"/>
  <g>
    <g>
      <path class="cls-1" d="M282.73,193.91h-10.89c-1.05.2-1.9.79-1.9,1.9,0,3.08,5.57.46,5.57,3.41,0,1.31-1.31,4.46-1.18,4.33-.07.13-.66,1.18-.72,1.25l-.2.72-4.52,9.25-.52,1.44-4.26,8.66c-.2.72-.59,1.9-1.38,1.9-1.18,0-2.1-1.44-2.36-2.43l-3.87-6.23c-.72-.92-1.31-1.97-2.03-2.95-1.11-1.44-3.02-3.08-3.02-5.05,0-.52.66-1.97,1.31-2.95,1.18-2.75,1.9-6.23,4.26-8.26,1.11-.98,5.31-1.38,5.31-2.82s-1.51-1.38-2.43-1.38h-10.1c-.26.26-.33.33-.33.39s.07.07.07.2c0,.66-.92.2-.92,1.18l2.95,3.08c0,.79-1.77,5.84-2.43,5.84-1.9,0-4.79-6.1-4.79-6.23,0-1.31,1.44-.92,1.44-2.62s-2.1-1.77-3.21-1.77l-3.54.26c-.66.07-2.43.07-4.13.07s-3.48,0-4.07-.07c-.79.13-1.18.46-1.18,1.25,0,1.7,3.02,1.84,5.05,2.62l.2.13c.2.13.92.66,1.05.79l1.7,2.56c1.31,1.38,2.16,3.02,3.21,5.11l.26.59c1.31,2.16,2.03,3.28,3.48,6.16.13.2.13.33.13.46v.39c0,1.64-2.1,3.93-2.82,5.84-.66,1.7-1.38,5.18-2.56,5.18-1.25,0-2.16-2.56-2.75-3.34-.92-1.25-2.3-2.1-3.08-3.48l-4.26-7.61c-.66-.59-2.95-3.8-4.52-5.97-.13-.2-.72-1.51-.92-1.77l-1.25-3.15c-.46-.85-.79-.98-.79-2.03,0-1.7,3.87-.66,3.87-2.82,0-.94-1.28-1.27-2.37-1.39-.43-.04-.83-.06-1.11-.06h-6.02c-1.19.17-2.41.41-3.53.8-1.39.49-3.17,1.14-4.91,1.78.95.98,2.8,1.11,3.97,1.82.91.57.93,1.44,1.27,2.26.05.12.11.24.18.36,3.21,5.84,6.03,10.89,9.57,16.33l5.25,8.39c1.77,2.82,3.21,5.51,5.05,8.52.93,1.54,1.41,3.61,2.58,4.43.33.23.7.36,1.16.36,1.25,0,2.16-.92,2.49-2.1,0-.98.92-1.56,1.41-2.6.03-.07.07-.15.09-.22.33-.72,1.25-3.34,2.23-5.38.52-1.38,2.62-9.18,4.52-9.18s2.3,3.61,3.15,4.79c1.11.59,1.9,2.62,2.49,3.67.85,1.57,2.1,2.89,2.82,4.52l.66,2.23c.2.52,2.89,4.39,3.8,4.39,2.69,0,2.82-2.56,3.67-4.66.52-1.31,1.38-2.89,1.57-4.26v-.26c0-1.25,1.44-2.49,1.84-3.48l1.25-3.08c.2-.46,2.03-3.93,2.16-4.39l.59-1.7c.33-1.05,1.25-1.9,1.77-2.95,1.9-3.54,2.82-6.75,4.13-9.9l2.23-4.26c0-.07.13-.72.2-.79,1.9-2.62,6.1-1.05,6.1-4.85,0-1.18-1.57-1.18-3.21-1.18Z"/>
      <path class="cls-1" d="M240.35,283.34c-2.21-.98-3.85-2.54-5.49-4.18l-.98-.9c-2.79-2.62-3.77-3.61-4.43-7.79-.16-.98-.49-1.97-.49-2.95,0-4.75,2.7-8.85,6.23-11.89.98-.82,3.11-1.56,3.11-3.03,0-.49-4.75-3.11-4.75-6.31,0-.98.16-2.13.25-3.11.25-2.46,3.36-6.39,5.41-7.7.41-.25,4.51-1.8,5-1.8h1.15c.25,0,.82-.33.98-.33,1.07,0,2.05.25,3.11.33,3.52.16,5.98.9,7.38,4.34.08.33.66,1.89.66,2.13,0,1.39-.66,4.02-2.46,4.02-.74,0-1.15-.41-1.56-.98-1.56-1.89.57-5-3.2-5s-7.05.98-7.05,5.57c0,2.46,3.28,5.08,5.66,5.08l2.54-.49c1.56,0,2.21,1.64,2.21,2.95,0,1.23-.33,2.13-1.64,2.38-1.89.41-3.69.25-5.49.98-3.03,1.31-6.31,4.84-6.31,8.28,0,1.48.25,3.69.66,5.08.74,2.38,1.64,2.95,3.44,4.18l.33.25c1.8,1.15,3.93,2.79,5.98,3.36,2.38.74,5.74.98,8.28.98s5.57-.33,8.11-.98c.66-.16,1.15-.66,1.72-.98,1.8-.98,3.77-3.93,3.77-6.07,0-1.56-.82-3.36-1.23-4.92-1.07-3.52-3.85-2.54-6.64-3.2-1.31-.33-2.62-.98-4.02-.98h-.74c-.9,0-1.8.08-2.54.49l-.33.25c-1.64.98-3.28,1.97-3.28,4.1,0,.98.49,1.56,1.39,1.97,2.54,0,5.49.49,5.49,3.69,0,1.31-.98,2.79-2.46,2.79h-3.69c-2.62,0-5-4.75-5-7.05,0-4.02,1.8-6.23,5-8.36,1.56-1.07,3.52-2.21,5.41-2.62,3.2-.66,6.39-.41,9.51-.9,2.87-.49,5.82-1.15,8.61-2.21,3.28-1.23,4.26-3.52,5.41-6.31l.25-.66c0-2.21-1.48-3.28-2.87-4.67-.9-.33-1.97-.66-3.2-.66-1.48,0-2.62,0-3.69,1.23-.25.25-1.07,1.07-1.07,1.48,0,1.72,6.07-.33,6.07,3.61,0,2.79-2.79,3.85-5.16,3.85-3.11,0-5.49-2.7-5.49-5.74,0-1.15.66-2.54,1.39-3.44l.25-.33c2.3-3.36,3.93-4.43,8.03-4.43.41,0,1.8,0,2.13.16.25.16.49.33.82.41l1.31.33c.41,0,3.52,2.38,3.69,2.87l.82,1.23c1.15,1.39,1.97,4.92,1.97,5.9,0,2.21-2.95,9.43-4.51,11.07-1.48,1.56-5.49,2.21-5.49,4.67,0,1.64.33,3.44.49,5.08v.41c0,.9-.25,2.3-1.15,2.3,0,4.51-5.41,7.54-8.36,10.33-1.39.49-2.46,1.64-3.77,2.38-1.39.82-3.11.9-4.51,1.8-1.72.33-3.77.82-5.49.82-5.16,0-10.74,0-15.49-2.13Z"/>
      <path class="cls-1" d="M316.99,270.68c-1.84-3.87-6.03-8.46-10.29-9.51-2.23-.52-4.52-.72-6.75-1.11-3.21-.52-6.49-.66-9.7-.66-.98,0-1.97.33-2.82.33-.46,0-2.36-.13-4.39-.13-2.36,0-4.85.2-5.38.92v.66c0,3.41,5.44-.2,5.44,3.93l-.07,11.28-.52,15.93.2,3.48c0,2.16-.07,4.33-.2,6.49l-.92.52c-.46,0-1.25-.07-2.03-.07-1.34,0-2.61.27-2.56,1.72.03.89.78,1.61,1.68,1.62,1.29.02,2.23-.39,3.37-.39.39,0,.85.07,1.31.2.2-.13.59-.2.98-.2.52,0,1.11.07,1.38.2h8.98c.79,0,2.23-.39,2.23-1.38,0-2.43-6.1-.72-6.49-3.67-.39-2.82-.46-6.82-.46-10.62v-8c0-1.9.39-12.07.59-12.52,0-.85-.13-1.9-.13-2.95,0-.79.07-1.57.33-2.23,0-.07.39-.2.46-.2l.33-.07c1.77-.46,4.13-1.05,5.84-1.05,1.84,0,2.43.46,3.8,1.57,2.69.33,1.77,1.11,3.15,2.23.59.46,1.38.66,1.77,1.31,1.31,2.03,1.84,3.87,2.69,6.1v5.25c0,.52-1.25,4.98-1.57,5.05-.98.66-1.31,1.05-1.7,1.57-.72.98-5.91-1.87-7.03-1.87-1.44,0-1.43,3.18-2.68,2.39-.72-.46-1.44-2.16-2.36-2.16-.59,0-.92.66-.92,1.18,0,5.05,3.77,3.8,7.57,3.8l2.62,1.01c.36,0,.71-.04,1.07-.08,1.03-.32,2.69-.7,4-.95.86-.3,1.7-.63,2.63-.74,9.29-5.31,4.57-3.17,7.1-9.53v-5.51c-.33-.85-.52-2.3-.52-3.15Z"/>
    </g>
    <path class="cls-1" d="M223.32,194.55h0c-1.8,1.92-3.17,4.17-3.91,6.77-.18-.05-.37-.1-.56-.12-1.82-.24-3.79-.24-5.86-.04-4.33.42-9.09,1.73-13.78,3.71-3.96,1.67-8.22,4.17-11.11,6.79-1.57,1.46-2.44,6.15-4.06,6.83-.73.31-1.04-.22-1.19-.58l-.07-.16c-1.09-2.59,1-5.97,4.69-9.17-.12-.05-.13-.09-.15-.13-.03-.08.01-.19.16-.3.42-.36,2.31-1.96,2.76-2.25l.49-.2c.88-.61,1.9-1.13,2.9-1.69.79-.38,1.65-1.26,2.59-1.75,2.17-1.15,4.64-2.52,6.9-3.47l.32-.14c1.18-.43,2.73-1,4.31-1.59,1.74-.64,3.52-1.3,4.91-1.78,1.13-.39,2.34-.62,3.53-.8,1.35-.2,2.68-.31,3.82-.47.36-.04.72-.08,1.08-.12.07.06.15.11.23.15.65.29,1.32.43,2.01.49Z"/>
  </g>
</svg>