<?xml version="1.0" encoding="UTF-8"?>
<svg id="Layer_1" data-name="Layer 1" xmlns="http://www.w3.org/2000/svg" viewBox="0 0 500 500">
  <defs>
    <style>
      .cls-1 {
        fill: #fff;
      }
    </style>
  </defs>
  <rect x=".03" y=".42" width="498.97" height="498.97" rx="17.45" ry="17.45"/>
  <g>
    <g>
      <path class="cls-1" d="M353.26,72.11h-34.5c-3.33.62-6.03,2.49-6.03,6.03,0,9.77,17.67,1.45,17.67,10.81,0,4.16-4.16,14.13-3.74,13.72-.21.42-2.08,3.74-2.29,3.95l-.62,2.29-14.34,29.31-1.66,4.57-13.51,27.44c-.62,2.29-1.87,6.03-4.36,6.03-3.74,0-6.65-4.57-7.48-7.69l-12.26-19.75c-2.29-2.91-4.16-6.24-6.44-9.35-3.53-4.57-9.56-9.77-9.56-16,0-1.66,2.08-6.24,4.16-9.35,3.74-8.73,6.03-19.75,13.51-26.19,3.53-3.12,16.84-4.36,16.84-8.94s-4.78-4.36-7.69-4.36h-32.01c-.83.83-1.04,1.04-1.04,1.25s.21.21.21.62c0,2.08-2.91.62-2.91,3.74l9.35,9.77c0,2.49-5.61,18.5-7.69,18.5-6.03,0-15.17-19.33-15.17-19.75,0-4.16,4.57-2.91,4.57-8.31s-6.65-5.61-10.18-5.61l-11.22.83c-2.08.21-7.69.21-13.09.21s-11.02,0-12.89-.21c-2.49.42-3.74,1.45-3.74,3.95,0,5.4,9.56,5.82,16,8.31l.62.42c.62.42,2.91,2.08,3.33,2.49l5.4,8.11c4.16,4.36,6.86,9.56,10.18,16.21l.83,1.87c4.16,6.86,6.44,10.39,11.02,19.54.42.62.42,1.04.42,1.45v1.25c0,5.2-6.65,12.47-8.94,18.5-2.08,5.4-4.36,16.42-8.11,16.42-3.95,0-6.86-8.11-8.73-10.6-2.91-3.95-7.27-6.65-9.77-11.02l-13.51-24.11c-2.08-1.87-9.35-12.06-14.34-18.91-.42-.62-2.29-4.78-2.91-5.61l-3.95-9.98c-1.45-2.7-2.49-3.12-2.49-6.44,0-5.4,12.26-2.08,12.26-8.94,0-2.98-4.06-4.03-7.5-4.4-1.36-.14-2.63-.17-3.52-.17h-19.09c-3.77.55-7.62,1.3-11.19,2.53-4.4,1.54-10.05,3.61-15.56,5.65,3.03,3.1,8.87,3.53,12.59,5.75,2.89,1.8,2.95,4.56,4.02,7.16.16.39.34.77.56,1.16,10.18,18.5,19.12,34.5,30.35,51.76l16.63,26.61c5.61,8.94,10.18,17.46,16,27.02,2.93,4.89,4.46,11.43,8.18,14.03,1.03.72,2.23,1.14,3.67,1.14,3.95,0,6.86-2.91,7.9-6.65,0-3.11,2.91-4.95,4.48-8.23.1-.23.21-.47.3-.71,1.04-2.29,3.95-10.6,7.07-17.04,1.66-4.36,8.31-29.1,14.34-29.1s7.27,11.43,9.98,15.17c3.53,1.87,6.03,8.31,7.9,11.64,2.7,4.99,6.65,9.15,8.94,14.34l2.08,7.07c.62,1.66,9.15,13.93,12.06,13.93,8.52,0,8.94-8.11,11.64-14.76,1.66-4.16,4.36-9.15,4.99-13.51v-.83c0-3.95,4.57-7.9,5.82-11.02l3.95-9.77c.62-1.45,6.44-12.47,6.86-13.93l1.87-5.4c1.04-3.33,3.95-6.03,5.61-9.35,6.03-11.22,8.94-21.41,13.09-31.39l7.07-13.51c0-.21.42-2.29.62-2.49,6.03-8.31,19.33-3.33,19.33-15.38,0-3.74-4.99-3.74-10.18-3.74Z"/>
      <path class="cls-1" d="M218.93,355.57c-7.02-3.12-12.21-8.05-17.41-13.25l-3.12-2.86c-8.83-8.31-11.95-11.43-14.03-24.68-.52-3.12-1.56-6.24-1.56-9.35,0-15.07,8.57-28.06,19.75-37.67,3.12-2.6,9.87-4.94,9.87-9.61,0-1.56-15.07-9.87-15.07-20.01,0-3.12.52-6.76.78-9.87.78-7.79,10.65-20.27,17.15-24.42,1.3-.78,14.29-5.72,15.85-5.72h3.64c.78,0,2.6-1.04,3.12-1.04,3.38,0,6.5.78,9.87,1.04,11.17.52,18.97,2.86,23.38,13.77.26,1.04,2.08,5.98,2.08,6.76,0,4.42-2.08,12.73-7.79,12.73-2.34,0-3.64-1.3-4.94-3.12-4.94-5.98,1.82-15.85-10.13-15.85s-22.34,3.12-22.34,17.67c0,7.79,10.39,16.11,17.93,16.11l8.05-1.56c4.94,0,7.02,5.2,7.02,9.35,0,3.9-1.04,6.76-5.2,7.53-5.98,1.3-11.69.78-17.41,3.12-9.61,4.16-20.01,15.33-20.01,26.24,0,4.68.78,11.69,2.08,16.11,2.34,7.53,5.2,9.35,10.91,13.25l1.04.78c5.72,3.64,12.47,8.83,18.97,10.65,7.53,2.34,18.19,3.12,26.24,3.12s17.67-1.04,25.72-3.12c2.08-.52,3.64-2.08,5.46-3.12,5.72-3.12,11.95-12.47,11.95-19.23,0-4.94-2.6-10.65-3.9-15.59-3.38-11.17-12.21-8.05-21.05-10.13-4.16-1.04-8.31-3.12-12.73-3.12h-2.34c-2.86,0-5.72.26-8.05,1.56l-1.04.78c-5.2,3.12-10.39,6.24-10.39,12.99,0,3.12,1.56,4.94,4.42,6.24,8.05,0,17.41,1.56,17.41,11.69,0,4.16-3.12,8.83-7.79,8.83h-11.69c-8.31,0-15.85-15.07-15.85-22.34,0-12.73,5.72-19.75,15.85-26.5,4.94-3.38,11.17-7.02,17.15-8.31,10.13-2.08,20.27-1.3,30.14-2.86,9.09-1.56,18.45-3.64,27.28-7.02,10.39-3.9,13.51-11.17,17.15-20.01l.78-2.08c0-7.02-4.68-10.39-9.09-14.81-2.86-1.04-6.24-2.08-10.13-2.08-4.68,0-8.31,0-11.69,3.9-.78.78-3.38,3.38-3.38,4.68,0,5.46,19.23-1.04,19.23,11.43,0,8.83-8.83,12.21-16.37,12.21-9.87,0-17.41-8.57-17.41-18.19,0-3.64,2.08-8.05,4.42-10.91l.78-1.04c7.27-10.65,12.47-14.03,25.46-14.03,1.3,0,5.72,0,6.76.52.78.52,1.56,1.04,2.6,1.3l4.16,1.04c1.3,0,11.17,7.53,11.69,9.09l2.6,3.9c3.64,4.42,6.24,15.59,6.24,18.71,0,7.02-9.35,29.88-14.29,35.08-4.68,4.94-17.41,7.02-17.41,14.81,0,5.2,1.04,10.91,1.56,16.11v1.3c0,2.86-.78,7.27-3.64,7.27,0,14.29-17.15,23.9-26.5,32.74-4.42,1.56-7.79,5.2-11.95,7.53-4.42,2.6-9.87,2.86-14.29,5.72-5.46,1.04-11.95,2.6-17.41,2.6-16.37,0-34.04,0-49.11-6.76Z"/>
      <path class="cls-1" d="M461.86,315.45c-5.82-12.26-19.12-26.81-32.63-30.14-7.07-1.66-14.34-2.29-21.41-3.53-10.18-1.66-20.58-2.08-30.76-2.08-3.12,0-6.24,1.04-8.94,1.04-1.45,0-7.48-.42-13.93-.42-7.48,0-15.38.62-17.04,2.91v2.08c0,10.81,17.25-.62,17.25,12.47l-.21,35.75-1.66,50.51.62,11.02c0,6.86-.21,13.72-.62,20.58l-2.91,1.66c-1.45,0-3.95-.21-6.44-.21-4.24,0-8.26.86-8.1,5.46.1,2.84,2.48,5.09,5.32,5.14,4.1.06,7.06-1.24,10.68-1.24,1.25,0,2.7.21,4.16.62.62-.42,1.87-.62,3.12-.62,1.66,0,3.53.21,4.36.62h28.48c2.49,0,7.07-1.25,7.07-4.36,0-7.69-19.33-2.29-20.58-11.64-1.25-8.94-1.45-21.62-1.45-33.67v-25.36c0-6.03,1.25-38.25,1.87-39.7,0-2.7-.42-6.03-.42-9.35,0-2.49.21-4.99,1.04-7.07,0-.21,1.25-.62,1.45-.62l1.04-.21c5.61-1.45,13.09-3.33,18.5-3.33,5.82,0,7.69,1.45,12.06,4.99,8.52,1.04,5.61,3.53,9.98,7.07,1.87,1.45,4.36,2.08,5.61,4.16,4.16,6.44,5.82,12.26,8.52,19.33v16.63c0,1.66-3.95,15.8-4.99,16-3.12,2.08-4.16,3.33-5.4,4.99-2.29,3.12-18.74-5.92-22.28-5.92-4.57,0-4.54,10.08-8.49,7.58-2.29-1.45-4.57-6.86-7.48-6.86-1.87,0-2.91,2.08-2.91,3.74,0,16,11.95,12.06,24.01,12.06l8.29,3.21c1.13-.02,2.26-.11,3.39-.26,3.26-1.01,8.53-2.21,12.69-3.02,2.72-.96,5.4-1.98,8.32-2.34,29.45-16.84,14.5-10.06,22.49-30.22v-17.46c-1.04-2.7-1.66-7.27-1.66-9.98Z"/>
    </g>
    <path class="cls-1" d="M164.95,74.13l-.02.02c-5.7,6.08-10.05,13.19-12.4,21.44-.57-.17-1.16-.31-1.77-.39-5.77-.75-12.02-.76-18.58-.14-13.72,1.33-28.8,5.5-43.68,11.77-12.54,5.28-26.06,13.21-35.2,21.53-4.98,4.63-7.75,19.51-12.86,21.66-2.3.97-3.3-.69-3.78-1.83l-.22-.51c-3.47-8.22,3.18-18.92,14.87-29.06-.37-.15-.42-.27-.47-.4-.11-.26.04-.62.5-.96,1.32-1.16,7.32-6.21,8.75-7.12l1.54-.64c2.8-1.93,6.02-3.58,9.19-5.36,2.5-1.21,5.24-4,8.21-5.55,6.89-3.65,14.71-7.98,21.87-11l1.02-.43c3.73-1.36,8.64-3.18,13.68-5.03,5.51-2.04,11.17-4.11,15.56-5.65,3.57-1.23,7.42-1.98,11.19-2.53,4.28-.62,8.48-.98,12.11-1.49,1.16-.14,2.29-.27,3.41-.38.22.19.47.35.74.47,2.05.93,4.18,1.36,6.36,1.55Z"/>
  </g>
</svg>